<?xml version="1.0" encoding="UTF-8" standalone="no"?>
<svg id="framsia_logo" xmlns:rdf="http://www.w3.org/1999/02/22-rdf-syntax-ns#" xmlns="http://www.w3.org/2000/svg" viewBox="0 0 800 800" width="100%" height="100%" version="1.1">
 <g id="framsia_logo_g1" transform="translate(-17.142863,-18.076465)">
  <g id="framsia_logo_g2" transform="matrix(6.92323,0,0,-6.92323,643.72287,553.28856)">
   <path id="framsia_logo_path1" fill-rule="nonzero" fill="#ffdf31" d="M0,0,7.935,2.35,0,4.699,0,0z"/>
  </g>
  <g id="framsia_logo_g3" transform="matrix(6.92323,0,0,-6.92323,355.48941,117.42897)">
   <path id="framsia_logo_path2" fill-rule="nonzero" fill="#ffdf31" d="m0,0-2.167,0c-0.458,0-0.549-0.305-0.549-0.548v-4.286c0-0.456,0.122-0.578,0.611-0.578h2.837c1.434,0,2.655,0.882,2.655,2.736,0,1.764-1.586,2.676-3.387,2.676"/>
  </g>
  <g id="framsia_logo_g4" transform="matrix(6.92323,0,0,-6.92323,484.57653,188.56793)">
   <path id="framsia_logo_path3" fill-rule="nonzero" fill="#ffdf31" d="M0,0,4.698,0,2.35,7.936,0,0z"/>
  </g>
  <g id="framsia_logo_g5" transform="matrix(6.92323,0,0,-6.92323,741.80427,377.51672)">
   <path id="framsia_logo_path4" fill-rule="nonzero" fill="#ffdf31" d="m0,0c-0.243-0.702-4.56,0.152-4.347,1.006,0.243,1.008,0.668,3.053,0.668,4.334,0,2.258-0.608,3.112-1.732,3.112-1.065,0-1.734-1.068-2.555-3.052-1.429-3.326-3.587-6.774-7.661-6.774-5.655,0-6.719,5.035-6.719,9.063,0,3.937,0.669,6.287,1.277,7.019,0.273,0.336,4.469,0.092,4.409-0.488-0.122-0.855-0.913-2.38-0.913-5.584,0-2.259,0.517-3.784,2.008-3.784,1.185,0,1.945,0.976,2.796,3.113,1.186,2.898,2.737,6.438,7.114,6.438,4.044,0,6.324-3.326,6.324-8.635,0-4.03-0.517-5.341-0.669-5.768m0.335-10.07c0-0.671-0.273-0.794-0.973-0.794h-20.521c-0.578,0-0.761,0.183-0.761,0.885v3.723c0,0.855,0.183,1.16,0.942,1.16h20.461c0.7,0,0.852-0.183,0.852-1.098v-3.876zm0-15.715c0-0.915-0.244-1.129-0.973-1.373l-20.279-6.196c-0.973-0.304-1.003,0.123-1.003,0.977v3.906c0,0.733,0.183,0.763,0.79,0.946l3.283,1.007v6.957l-3.283,0.978c-0.607,0.183-0.79,0.305-0.79,0.945v3.388c0,0.458,0.183,0.701,1.003,0.427l20.279-6.196c0.729-0.212,0.973-0.457,0.973-1.341v-4.425zm-25.803,45.325-3.905,0c-0.731,0-0.763,0.182-0.946,0.79l-1.007,3.284h-6.958l-0.977-3.284c-0.183-0.608-0.304-0.79-0.945-0.79h-3.388c-0.458,0-0.702,0.182-0.427,1.003l6.196,20.278c0.213,0.73,0.457,0.973,1.342,0.973h4.424c0.915,0,1.129-0.243,1.374-0.973l6.194-20.278c0.306-0.973-0.121-1.003-0.977-1.003m-21.695-0.001-4.456,0c-0.855,0.03-0.886,0.334-1.129,0.881l-3.204,7.023c-0.122,0.244-0.215,0.244-0.488,0.244h-1.862c-0.275,0-0.305-0.122-0.305-0.457v-6.718c0-0.791-0.335-0.973-1.16-0.973h-3.845c-0.824,0-0.762,0.364-0.762,1.064v20.4c0,0.577,0.152,0.79,0.914,0.79h8.057c5.799,0,8.789-2.949,8.789-7.053,0-3.071-2.198-4.956-3.602-5.504-0.428-0.181-0.396-0.121-0.244-0.486l3.724-8.178c0.305-0.638,0.366-1.064-0.427-1.033m-20.537,18.94c0-0.76-0.336-0.912-1.221-0.912h-6.225c-0.671,0-0.794-0.243-0.794-0.486v-3.801c0-0.516,0.275-0.699,0.671-0.699h5.34c0.856,0,1.008-0.304,0.948-0.699l-0.153-2.797c-0.154-0.882-1.008-0.82-1.465-0.82h-4.486c-0.519,0-0.794-0.275-0.794-0.731v-7.265c0-0.518-0.274-0.73-0.579-0.73h-4.09c-0.396,0-0.854,0.212-0.854,0.973v20.278c0,0.577,0.03,1.003,0.702,1.003h12.176c0.732,0,0.824-0.304,0.824-0.668v-2.646zm46.107,2.341c0,0.791,0.365,0.973,1.19,0.973h3.295c0.519,0,0.916,0.03,1.283-0.577l4.82-8.179c0.123-0.213,0.307-0.213,0.428-0.03l4.639,8.147c0.274,0.518,0.824,0.639,1.312,0.639h3.691c0.794,0,0.764-0.365,0.764-1.064v-20.4c0-0.578-0.152-0.79-0.916-0.79h-3.57c-0.946,0-1.281,0.212-1.281,1.003v12.191c0,0.426-0.245,0.334-0.428,0.031l-3.447-6.567c-0.368-0.7-0.398-0.821-0.856-0.821h-0.488c-0.641,0-0.61,0.092-0.977,0.851l-3.203,6.384c-0.214,0.334-0.488,0.243-0.488-0.06v-12.222c0-0.516-0.031-0.79-0.916-0.79h-3.571c-0.519,0-1.281-0.061-1.281,1.003v20.278zm-83.078-104.46,115.55,0,0,115.55-115.55,0,0-115.55z"/>
  </g>
 </g>
</svg>
